Coordinates
version=1
nRows=12
nColumns=24
inDegrees=yes

Units are S.I. units (second, meters, Newtons, ...)
Angles are in degrees.

endheader
time	pelvis_tilt	pelvis_list	pelvis_rotation	pelvis_tx	pelvis_ty	pelvis_tz	hip_flexion_r	hip_adduction_r	hip_rotation_r	knee_angle_r	ankle_angle_r	subtalar_angle_r	mtp_angle_r	hip_flexion_l	hip_adduction_l	hip_rotation_l	knee_angle_l	ankle_angle_l	subtalar_angle_l	mtp_angle_l	lumbar_extension	lumbar_bending	lumbar_rotation
      4.38000000	      4.95588059	     -6.61086139	     -6.48537744	     -2.59102447	      0.87873393	      0.29405932	    -19.72935766	      8.07826813	     11.78434225	    -16.11446599	     21.15780881	      3.51568758	      0.00000000	     18.21260316	     -6.45400944	     -1.02904930	     -1.81489189	      1.53464093	      0.25840554	      0.00000000	    -25.63260672	      3.78610749	      9.18473156
      4.39000000	      4.92859344	     -6.12287271	     -6.20506527	     -2.57776158	      0.87778780	      0.29279151	    -19.80553848	      7.61130208	     11.38961690	    -17.43686867	     20.63404906	      3.61811140	      0.00000000	     18.46043597	     -5.68328618	     -0.93565661	     -3.25001279	      1.12499127	     -0.62167421	      0.00000000	    -25.45883405	      3.24666847	      8.43502834
      4.40000000	      4.95291095	     -5.50341150	     -5.82794548	     -2.56431243	      0.87700661	      0.29138999	    -19.77709484	      7.05127789	     10.74661169	    -19.02817761	     20.03082921	      3.86685956	      0.00000000	     18.56813428	     -4.71605939	     -0.17831211	     -4.66284524	      0.26451246	     -2.17089625	      0.00000000	    -25.33190406	      2.57417053	      7.55738319
      4.41000000	      5.01926885	     -4.77004991	     -5.33190436	     -2.55076190	      0.87642188	      0.28988876	    -19.66988360	      6.45655126	     10.07080415	    -20.82282443	     19.16761039	      3.88440601	      0.00000000	     18.66731960	     -3.58268912	      0.75608190	     -6.20049503	     -0.76298155	     -3.54596152	      0.00000000	    -25.25728699	      1.79664738	      6.53727031
      4.42000000	      5.13212801	     -3.93556346	     -4.74298738	     -2.53718723	      0.87605527	      0.28832553	    -19.43450523	      5.82155322	      9.25618590	    -22.91019933	     18.03745946	      3.84647234	      0.00000000	     18.77958896	     -2.31549331	      1.67976694	     -7.88686106	     -1.63433712	     -4.41311899	      0.00000000	    -25.27073256	      0.91554993	      5.41719187
      4.43000000	      5.31097983	     -3.01195645	     -4.11401314	     -2.52366099	      0.87594060	      0.28685374	    -19.08650309	      5.16144350	      8.44680170	    -25.29701769	     16.48644181	      3.50419711	      0.00000000	     18.90543999	     -0.97457443	      2.23893854	     -9.74827417	     -2.07606952	     -4.41479759	      0.00000000	    -25.41154844	     -0.09149306	      4.26141481
      4.44000000	      5.50471419	     -2.05682915	     -3.44091580	     -2.51021068	      0.87594941	      0.28537481	    -18.52721744	      4.48069642	      7.39300172	    -28.03166400	     14.55424944	      3.27963618	      0.00000000	     19.01270710	      0.40906962	      2.87568469	    -11.64968417	     -2.17684713	     -4.32375676	      0.00000000	    -25.62415828	     -1.12490763	      3.10103429
      4.45000000	      5.64191442	     -1.12424656	     -2.75262156	     -2.49691614	      0.87596277	      0.28394548	    -17.66609739	      3.80594765	      6.13732088	    -31.11323992	     12.27001917	      3.24886259	      0.00000000	     19.22094800	      1.73065715	      3.19153398	    -13.67473280	     -1.61553790	     -3.69592799	      0.00000000	    -25.84146596	     -2.12136595	      1.97342640
      4.46000000	      5.80747130	     -0.22663530	     -2.16165611	     -2.48381425	      0.87611779	      0.28277444	    -16.64933784	      3.14377171	      5.02551898	    -34.40459785	      9.38501260	      2.82088987	      0.00000000	     19.38501777	      2.90353440	      2.91440114	    -15.73458246	     -0.42237446	     -2.39503400	      0.00000000	    -26.16412085	     -3.12983560	      1.02197677
      4.47000000	      5.93788881	      0.62946245	     -1.68512646	     -2.47089969	      0.87631433	      0.28175686	    -15.39329225	      2.44466494	      3.95325557	    -37.89230157	      6.19771995	      2.42067017	      0.00000000	     19.44532840	      3.95996926	      2.48858681	    -17.59921630	      1.04005675	     -1.20989200	      0.00000000	    -26.49132591	     -4.11551249	      0.18999546
      4.48000000	      6.04280654	      1.44005591	     -1.36317608	     -2.45822305	      0.87660106	      0.28090229	    -13.93442210	      1.69684120	      3.01035313	    -41.48160298	      2.86416343	      1.94317127	      0.00000000	     19.36736483	      4.88885936	      1.90443872	    -19.20768708	      2.66938551	     -0.09393034	      0.00000000	    -26.83257761	     -5.08164537	     -0.43972491
      4.49000000	      6.12840343	      2.20835705	     -1.20239083	     -2.44579839	      0.87701440	      0.28017461	    -12.29766739	      0.88444127	      2.20309072	    -45.10983506	     -0.25431551	      1.45606067	      0.00000000	     19.12058209	      5.70407724	      1.19492459	    -20.49201714	      4.41533983	      0.99908669	      0.00000000	    -27.17755904	     -6.02037216	     -0.89841924
